<mxfile host="app.diagrams.net" agent="Mozilla/5.0 (Windows NT 10.0; Win64; x64) AppleWebKit/537.36 (KHTML, like Gecko) Chrome/134.0.0.0 Safari/537.36" version="26.1.0">
  <diagram name="PÃ¡gina-1" id="fh3l5JAtcwN4DxrLxvHm">
    <mxGraphModel dx="1617" dy="1323" grid="1" gridSize="10" guides="1" tooltips="1" connect="1" arrows="1" fold="1" page="1" pageScale="1" pageWidth="827" pageHeight="1169" math="0" shadow="0">
      <root>
        <mxCell id="0" />
        <mxCell id="1" parent="0" />
        <mxCell id="9jzzl83fZ5NG2uD0tE47-45" style="edgeStyle=orthogonalEdgeStyle;rounded=0;orthogonalLoop=1;jettySize=auto;html=1;exitX=0.5;exitY=1;exitDx=0;exitDy=0;entryX=0.5;entryY=0;entryDx=0;entryDy=0;" edge="1" parent="1" source="9jzzl83fZ5NG2uD0tE47-1" target="9jzzl83fZ5NG2uD0tE47-43">
          <mxGeometry relative="1" as="geometry" />
        </mxCell>
        <mxCell id="9jzzl83fZ5NG2uD0tE47-1" value="" style="ellipse;whiteSpace=wrap;html=1;" vertex="1" parent="1">
          <mxGeometry x="-492.5" y="40" width="120" height="80" as="geometry" />
        </mxCell>
        <mxCell id="9jzzl83fZ5NG2uD0tE47-24" value="INICIO&lt;div&gt;&lt;br&gt;&lt;/div&gt;" style="text;html=1;align=center;verticalAlign=middle;whiteSpace=wrap;rounded=0;" vertex="1" parent="1">
          <mxGeometry x="-462.5" y="75" width="60" height="30" as="geometry" />
        </mxCell>
        <mxCell id="9jzzl83fZ5NG2uD0tE47-30" value="" style="rounded=0;whiteSpace=wrap;html=1;" vertex="1" parent="1">
          <mxGeometry x="-370" y="485" width="110" height="60" as="geometry" />
        </mxCell>
        <mxCell id="9jzzl83fZ5NG2uD0tE47-31" value="" style="rounded=0;whiteSpace=wrap;html=1;" vertex="1" parent="1">
          <mxGeometry x="-605" y="485" width="110" height="60" as="geometry" />
        </mxCell>
        <mxCell id="9jzzl83fZ5NG2uD0tE47-49" style="edgeStyle=orthogonalEdgeStyle;rounded=0;orthogonalLoop=1;jettySize=auto;html=1;exitX=0;exitY=0.5;exitDx=0;exitDy=0;entryX=0.5;entryY=0;entryDx=0;entryDy=0;" edge="1" parent="1" source="9jzzl83fZ5NG2uD0tE47-34" target="9jzzl83fZ5NG2uD0tE47-31">
          <mxGeometry relative="1" as="geometry" />
        </mxCell>
        <mxCell id="9jzzl83fZ5NG2uD0tE47-34" value="&lt;span style=&quot;color: rgba(0, 0, 0, 0); font-family: monospace; font-size: 0px; text-align: start; text-wrap-mode: nowrap;&quot;&gt;%3CmxGraphModel%3E%3Croot%3E%3CmxCell%20id%3D%220%22%2F%3E%3CmxCell%20id%3D%221%22%20parent%3D%220%22%2F%3E%3CmxCell%20id%3D%222%22%20value%3D%22ingresar%26amp%3Bnbsp%3B%26amp%3Bnbsp%3B%26lt%3Bdiv%26gt%3Bun%26amp%3Bnbsp%3B%26lt%3B%2Fdiv%26gt%3B%26lt%3Bdiv%26gt%3Bnumero%26amp%3Bnbsp%3B%26lt%3B%2Fdiv%26gt%3B%22%20style%3D%22text%3Bhtml%3D1%3Balign%3Dcenter%3BverticalAlign%3Dmiddle%3BwhiteSpace%3Dwrap%3Brounded%3D0%3B%22%20vertex%3D%221%22%20parent%3D%221%22%3E%3CmxGeometry%20x%3D%22-500%22%20y%3D%22420%22%20width%3D%2273%22%20height%3D%2225%22%20as%3D%22geometry%22%2F%3E%3C%2FmxCell%3E%3C%2Froot%3E%3C%2FmxGraphModel%3E&lt;/span&gt;&lt;span style=&quot;color: rgba(0, 0, 0, 0); font-family: monospace; font-size: 0px; text-align: start; text-wrap-mode: nowrap;&quot;&gt;%3CmxGraphModel%3E%3Croot%3E%3CmxCell%20id%3D%220%22%2F%3E%3CmxCell%20id%3D%221%22%20parent%3D%220%22%2F%3E%3CmxCell%20id%3D%222%22%20value%3D%22ingresar%26amp%3Bnbsp%3B%26amp%3Bnbsp%3B%26lt%3Bdiv%26gt%3Bun%26amp%3Bnbsp%3B%26lt%3B%2Fdiv%26gt%3B%26lt%3Bdiv%26gt%3Bnumero%26amp%3Bnbsp%3B%26lt%3B%2Fdiv%26gt%3B%22%20style%3D%22text%3Bhtml%3D1%3Balign%3Dcenter%3BverticalAlign%3Dmiddle%3BwhiteSpace%3Dwrap%3Brounded%3D0%3B%22%20vertex%3D%221%22%20parent%3D%221%22%3E%3CmxGeometry%20x%3D%22-500%22%20y%3D%22420%22%20width%3D%2273%22%20height%3D%2225%22%20as%3D%22geometry%22%2F%3E%3C%2FmxCell%3E%3C%2Froot%3E%3C%2FmxGraphModel%3E&lt;/span&gt;" style="rhombus;whiteSpace=wrap;html=1;" vertex="1" parent="1">
          <mxGeometry x="-510" y="310" width="152.5" height="110" as="geometry" />
        </mxCell>
        <mxCell id="9jzzl83fZ5NG2uD0tE47-48" style="edgeStyle=orthogonalEdgeStyle;rounded=0;orthogonalLoop=1;jettySize=auto;html=1;exitX=0.5;exitY=1;exitDx=0;exitDy=0;entryX=0.5;entryY=0;entryDx=0;entryDy=0;" edge="1" parent="1" source="9jzzl83fZ5NG2uD0tE47-43" target="9jzzl83fZ5NG2uD0tE47-34">
          <mxGeometry relative="1" as="geometry" />
        </mxCell>
        <mxCell id="9jzzl83fZ5NG2uD0tE47-43" value="" style="shape=parallelogram;perimeter=parallelogramPerimeter;whiteSpace=wrap;html=1;fixedSize=1;" vertex="1" parent="1">
          <mxGeometry x="-490" y="200" width="120" height="60" as="geometry" />
        </mxCell>
        <mxCell id="9jzzl83fZ5NG2uD0tE47-44" value="Ingresa un numero&amp;nbsp;" style="text;html=1;align=center;verticalAlign=middle;whiteSpace=wrap;rounded=0;" vertex="1" parent="1">
          <mxGeometry x="-460" y="215" width="60" height="30" as="geometry" />
        </mxCell>
        <mxCell id="9jzzl83fZ5NG2uD0tE47-50" style="edgeStyle=orthogonalEdgeStyle;rounded=0;orthogonalLoop=1;jettySize=auto;html=1;exitX=1;exitY=0.5;exitDx=0;exitDy=0;entryX=0.427;entryY=-0.067;entryDx=0;entryDy=0;entryPerimeter=0;" edge="1" parent="1" source="9jzzl83fZ5NG2uD0tE47-34" target="9jzzl83fZ5NG2uD0tE47-30">
          <mxGeometry relative="1" as="geometry" />
        </mxCell>
        <mxCell id="9jzzl83fZ5NG2uD0tE47-52" value="El numero es divisible por 2&amp;nbsp;" style="text;html=1;align=center;verticalAlign=middle;whiteSpace=wrap;rounded=0;" vertex="1" parent="1">
          <mxGeometry x="-465" y="350" width="60" height="30" as="geometry" />
        </mxCell>
        <mxCell id="9jzzl83fZ5NG2uD0tE47-53" value="si&amp;nbsp;" style="text;html=1;align=center;verticalAlign=middle;whiteSpace=wrap;rounded=0;" vertex="1" parent="1">
          <mxGeometry x="-580" y="500" width="60" height="30" as="geometry" />
        </mxCell>
        <mxCell id="9jzzl83fZ5NG2uD0tE47-54" value="no" style="text;html=1;align=center;verticalAlign=middle;whiteSpace=wrap;rounded=0;" vertex="1" parent="1">
          <mxGeometry x="-347.5" y="495" width="60" height="30" as="geometry" />
        </mxCell>
      </root>
    </mxGraphModel>
  </diagram>
</mxfile>
